<svg id="Capa_1" enable-background="new 0 0 512 512" height="512" viewBox="0 0 512 512" width="512" xmlns="http://www.w3.org/2000/svg"><g><g><path clip-rule="evenodd" d="m188.551 231.948c-31.407 9.95-56.097 19.247-145.755 72.482 103.944-8.05 129.512-14.655 160.92-24.577 11.055-3.515 21.146-8.731 29.451-14.428-8.334-6.661-13.663-16.951-13.663-28.46 0-3.543.482-6.945 1.417-10.176-10.062.142-21.315 1.672-32.37 5.159z" fill="#bfdbff" fill-rule="evenodd"/></g><g><path clip-rule="evenodd" d="m219.505 236.965c0 11.509 5.329 21.799 13.663 28.46.624.51 1.247.992 1.899 1.417 5.924 4.167 13.124 6.605 20.919 6.605s15.023-2.438 20.948-6.605c.652-.425 1.276-.907 1.871-1.389 8.362-6.69 13.691-16.98 13.691-28.488 0-3.543-.51-6.945-1.446-10.176-2.409-8.362-7.738-15.477-14.797-20.183-5.783-3.883-12.756-6.151-20.267-6.151-7.483 0-14.456 2.268-20.267 6.151-7.058 4.706-12.387 11.821-14.797 20.183-.935 3.231-1.417 6.633-1.417 10.176z" fill="#ffda8f" fill-rule="evenodd"/></g><g><path clip-rule="evenodd" d="m230.871 174.177c0 11.565 1.928 22.762 4.847 32.429 5.811-3.883 12.784-6.151 20.267-6.151 7.512 0 14.485 2.268 20.267 6.151 2.92-9.666 4.847-20.863 4.847-32.429 0-32.939-1.417-59.301-25.115-160.839-23.695 101.538-25.113 127.9-25.113 160.839z" fill="#bfdbff" fill-rule="evenodd"/></g><g><path clip-rule="evenodd" d="m278.804 265.425c8.334 5.698 18.425 10.913 29.451 14.428 31.407 9.921 56.975 16.526 160.92 24.577-6.123-3.628-11.962-7.058-17.489-10.318-75.542-44.192-99.012-52.895-128.265-62.164-11.027-3.487-22.28-5.017-32.371-5.159.935 3.232 1.446 6.633 1.446 10.176-.001 11.509-5.33 21.799-13.692 28.46z" fill="#bfdbff" fill-rule="evenodd"/></g><g><path clip-rule="evenodd" d="m235.067 266.843v117.44h41.867v-117.44c-5.924 4.167-13.152 6.605-20.948 6.605-7.795-.001-14.995-2.438-20.919-6.605z" fill="#e7e9ef" fill-rule="evenodd"/></g><g><path clip-rule="evenodd" d="m225.231 394.091v58.082h61.511v-58.082c0-5.386-4.422-9.808-9.808-9.808h-41.867c-5.415 0-9.836 4.422-9.836 9.808z" fill="#a6afc6" fill-rule="evenodd"/></g><g><path clip-rule="evenodd" d="m168.142 475.417v23.244h175.716v-23.244c0-12.784-10.46-23.244-23.244-23.244h-33.873-61.511-33.845c-12.784 0-23.243 10.46-23.243 23.244z" fill="#e7e9ef" fill-rule="evenodd"/></g><g><path d="m327.855 113.265c37.092 20.956 63.176 56.824 71.565 98.409.958 4.747 5.13 8.024 9.792 8.024.655 0 1.321-.065 1.988-.199 5.414-1.092 8.917-6.367 7.825-11.78-9.539-47.28-39.184-88.054-81.333-111.867-4.808-2.717-10.908-1.021-13.625 3.788s-1.02 10.908 3.788 13.625z"/><path d="m103.862 214.737c4.533 0 8.64-3.104 9.725-7.709 9.316-39.538 35.032-73.713 70.553-93.762 4.81-2.714 6.508-8.814 3.794-13.624-2.715-4.811-8.816-6.508-13.624-3.793-40.368 22.784-69.597 61.636-80.189 106.592-1.267 5.375 2.064 10.76 7.439 12.027.771.182 1.543.269 2.302.269z"/><path d="m502 488.662h-148.142v-13.244c0-18.331-14.913-33.244-33.244-33.244h-23.873v-48.083c0-7.272-3.951-13.625-9.808-17.069v-95.206c5.946 3.028 12.11 5.597 18.31 7.573 32.291 10.201 59.387 16.974 163.16 25.011.261.02.52.03.777.03 4.327 0 8.205-2.801 9.528-6.982 1.403-4.431-.431-9.243-4.427-11.616-3.806-2.261-7.489-4.437-11.071-6.545 3.708-15.895 5.589-32.191 5.589-48.552 0-76.641-41.494-147.689-108.289-185.42-4.805-2.715-10.907-1.021-13.625 3.789-2.716 4.809-1.02 10.909 3.789 13.625 60.525 34.189 98.125 98.566 98.125 168.006 0 12.762-1.264 25.479-3.758 37.958-66.476-38.371-90.122-47.256-118.608-56.28-8.991-2.843-18.693-4.638-28.408-5.316-2.55-5.374-6.101-10.181-10.41-14.186 2.534-10.425 3.567-20.867 3.483-34.352-.035-5.501-4.505-9.937-9.999-9.937-.021 0-.043 0-.064 0-5.522.035-9.971 4.541-9.937 10.063.058 9.191-.465 16.687-1.718 23.746-4.245-1.28-8.741-1.976-13.397-1.976-4.662 0-9.164.698-13.413 1.982-1.118-6.091-1.701-12.263-1.701-18.26 0-27.104.848-49.03 15.111-115.327 1.989 9.262 3.748 17.812 5.297 25.741 1.06 5.42 6.311 8.956 11.731 7.897s8.956-6.312 7.897-11.732c-3.76-19.244-8.727-42.041-15.185-69.693-1.058-4.525-5.092-7.726-9.739-7.726-4.646 0-8.682 3.202-9.737 7.728-1.406 6.026-2.733 11.784-3.988 17.307-31.841 2.05-63.107 11.31-90.801 26.943-66.773 37.739-108.256 108.788-108.256 185.42 0 5.523 4.478 10 10 10s10-4.477 10-10c0-69.435 37.589-133.811 98.095-168.005 23.384-13.2 49.59-21.384 76.414-23.935-15.562 71.423-16.837 96.182-16.837 125.381 0 9.464 1.217 19.271 3.506 28.73-4.308 4.006-7.858 8.814-10.407 14.189-9.704.677-19.414 2.472-28.439 5.318-32.269 10.223-58.322 20.266-147.84 73.417-3.996 2.373-5.831 7.186-4.429 11.616 1.324 4.182 5.201 6.983 9.529 6.983.257 0 .517-.01.777-.03 103.773-8.037 130.869-14.811 163.178-25.017 6.208-1.974 12.377-4.542 18.32-7.571v95.2c-5.873 3.443-9.836 9.8-9.836 17.078v48.083h-23.845c-18.331 0-33.244 14.913-33.244 33.244v13.244h-148.141c-5.522 0-10 4.477-10 10s4.478 10 10 10h492c5.522 0 10-4.477 10-10s-4.478-9.998-10-9.998zm-246.015-205.215c3.771 0 7.435-.462 10.948-1.313v92.148h-21.867v-92.142c3.505.847 7.158 1.307 10.919 1.307zm169.824 7.253c-67.496-6.405-88.663-12.208-114.516-20.375-5.731-1.826-11.446-4.254-16.915-7.161 5.004-7.301 7.973-16.095 8.101-25.564 6.157.772 12.218 2.076 17.921 3.88 25.886 8.201 46.552 15.633 105.409 49.22zm-143.314-53.735c0 14.602-11.893 26.482-26.51 26.482-14.602 0-26.48-11.88-26.48-26.482 0-14.618 11.879-26.511 26.48-26.511 14.618.001 26.51 11.893 26.51 26.511zm-81.792 33.353c-25.871 8.173-47.043 13.977-114.527 20.381 58.887-33.598 79.541-41.028 105.383-49.214 5.729-1.807 11.803-3.113 17.962-3.885.128 9.469 3.094 18.263 8.095 25.565-5.46 2.903-11.175 5.329-16.913 7.153zm34.527 123.965h41.511v47.891h-41.511zm-57.088 81.134c0-7.303 5.941-13.244 13.244-13.244h129.229c7.303 0 13.244 5.941 13.244 13.244v13.244h-155.717z"/></g><g><path d="m278.322 136.102c-5.522 0-10-4.477-10-10s4.478-10.029 10-10.029 10 4.449 10 9.972v.057c0 5.523-4.477 10-10 10z"/></g></g></svg>